<svg xmlns="http://www.w3.org/2000/svg" viewBox="0 0 16 16" id="Square-Facebook--Streamline-Font-Awesome" height="16" width="16">
  <desc>
    Square Facebook Streamline Icon: https://streamlinehq.com
  </desc>
<!--! Font Awesome Free 6.5.2 by @fontawesome - https://fontawesome.com License - https://fontawesome.com/license/free (Icons: CC BY 4.0, Fonts: SIL OFL 1.1, Code: MIT License) Copyright 2024 Fonticons, Inc.-->
  <path d="M2.4 0.16C1.1645 0.16 0.16 1.1645 0.16 2.4v11.200000000000001c0 1.2355 1.0045 2.2399999999999998 2.2399999999999998 2.2399999999999998h3.437V10.737h-1.8479999999999999V8h1.8479999999999999v-1.1795c0 -3.0484999999999998 1.379 -4.4624999999999995 4.375 -4.4624999999999995 0.567 0 1.547 0.112 1.9494999999999998 0.224v2.4779999999999998c-0.21 -0.020999999999999998 -0.5775 -0.034999999999999996 -1.0359999999999998 -0.034999999999999996 -1.4699999999999998 0 -2.037 0.5565 -2.037 2.002V8h2.9259999999999997l-0.504 2.7369999999999997H9.084999999999999V15.839999999999998H13.6c1.2355 0 2.2399999999999998 -1.0045 2.2399999999999998 -2.2399999999999998V2.4c0 -1.2355 -1.0045 -2.2399999999999998 -2.2399999999999998 -2.2399999999999998H2.4Z" fill="#f3f3f3" stroke-width="0.0357"></path>
</svg>